<?xml version="1.0" encoding="utf-8"?>
<!-- Generator: Adobe Illustrator 20.0.0, SVG Export Plug-In . SVG Version: 6.00 Build 0)  -->
<!DOCTYPE svg PUBLIC "-//W3C//DTD SVG 1.1//EN" "http://www.w3.org/Graphics/SVG/1.1/DTD/svg11.dtd">
<svg version="1.1" id="Layer_1" xmlns="http://www.w3.org/2000/svg" xmlns:xlink="http://www.w3.org/1999/xlink" x="0px" y="0px"
	 viewBox="0 0 2672.99 809.502" enable-background="new 0 0 2672.99 809.502" xml:space="preserve">
<g>
	<path fill="#ED8868" stroke="#ED8868" stroke-width="0.5" d="M958.143,248.525c27.939-15.33,58.96-24.2,90.26-29.431
		c4.87,36.924,6.722,75.848-6.05,111.46c-43.466,25.824-75.831,67.043-98.638,111.558c-13.723,27.971-24.955,58.173-26.217,89.555
		c4.066-0.984,7.985-2.492,11.674-4.492c43.482-21.741,85.685-48.171,118.379-84.62c4.902-6.001,10.428-11.772,13.773-18.823
		c1.623-25.201-2.525-50.664-10.903-74.454c2.115,0.574,4.148,1.492,5.968,2.755c25.856,16.593,49.385,36.956,68.912,60.714
		c18.806,23.053,33.595,49.958,39.547,79.291c5.509,26.168,3.263,53.631-5.116,78.93c-10.001,30.218-27.709,57.304-48.286,81.373
		c-12.772,15.15-27.824,28.381-44.745,38.711c-31.972,19.708-68.765,30.365-105.77,35.333c-34.186,4.427-68.896,4.247-103.098,0.262
		c-27.873-3.427-55.599-9.215-81.963-18.987c-11.74-24.725-23.315-49.532-34.792-74.388c16.117-1.82,32.185-4.115,48.302-5.902
		c-12.772-16.134-26.955-31.136-40.121-46.974c8.788-19.741,17.576-39.481,26.283-59.255c-22.626,10.592-46.63,20.724-72.142,19.593
		c-9.362-0.229-17.56-5.132-25.578-9.378c-14.527-24.397-19.905-54.303-13.527-82.078c9.231-40.842,40.252-73.601,75.93-93.67
		c-6.69,22.2-10.493,45.679-8.444,68.863c11.953,19.101,28.857,34.628,46.089,48.942c25.299,20.479,53.271,37.465,82.373,51.975
		c4.968,2.312,9.739,5.87,15.494,5.657c13.805-0.23,27.611-0.148,41.416-0.066c-0.459-10.657-12.33-16.265-21.807-15.806
		c-7.854,0.279-15.445,4.492-19.249,11.477c-3.443-31.939-14.609-62.616-29.595-90.866c-22.79-42.088-54.156-81.111-95.949-105.524
		c-6.722-16.888-8.739-35.186-9.559-53.205c-0.623-19.265,0.771-38.547,3.312-57.632c5.116,0.197,10.116,1.525,15.15,2.459
		c25.971,5.558,51.729,13.494,74.946,26.627C873.163,231.129,919.449,230.834,958.143,248.525 M761.326,241.639
		c-2.263,14.724-1.066,30.021,2.492,44.482c12.854-12.149,27.037-22.987,42.875-30.988C792.921,247,776.935,244.033,761.326,241.639
		 M986.459,255.411c12.543,6.296,24.233,14.281,34.71,23.61c2.705,2.312,4.919,5.296,8.182,6.919
		c3.132-14.428,4.214-29.283,2.771-43.99C1016.414,243.754,999.887,246.656,986.459,255.411z"/>
	<path fill="#FAF0DD" stroke="#FAF0DD" stroke-width="0.5" d="M761.326,241.639c15.609,2.394,31.595,5.361,45.368,13.494
		c-15.839,8.001-30.021,18.839-42.875,30.988C760.26,271.66,759.063,256.362,761.326,241.639z"/>
	<path fill="#FAF0DD" stroke="#FAF0DD" stroke-width="0.5" d="M986.459,255.411c13.428-8.755,29.956-11.658,45.663-13.461
		c1.443,14.707,0.361,29.562-2.771,43.99c-3.263-1.623-5.476-4.607-8.182-6.919C1010.692,269.692,999.002,261.707,986.459,255.411z"
		/>
	<path fill="#FAF0DD" stroke="#FAF0DD" stroke-width="0.5" d="M750.554,330.259c41.793,24.414,73.159,63.436,95.949,105.524
		c14.986,28.25,26.152,58.927,29.595,90.866c-0.082,1.099-0.262,3.296-0.361,4.394c-5.755,0.213-10.526-3.345-15.494-5.657
		c-29.103-14.51-57.074-31.497-82.373-51.975c-17.232-14.314-34.136-29.841-46.089-48.942c-2.049-23.184,1.754-46.663,8.444-68.863
		C743.143,346.95,746.537,338.457,750.554,330.259 M804.316,431.324c0.59,5.132,3.427,10.493,8.772,11.903
		c7.608,2.755,16.101-4.46,15.166-12.379c-2.164,2.787-3.738,6.427-7.198,7.87c-4.214,1.738-9.657,1.033-12.641-2.623
		C807.054,434.472,806.546,431.947,804.316,431.324z"/>
	<path fill="#FAF0DD" stroke="#FAF0DD" stroke-width="0.5" d="M943.715,442.112c22.807-44.515,55.172-85.734,98.638-111.558
		c3.115,6.034,5.689,12.346,8.067,18.724c8.378,23.791,12.526,49.254,10.903,74.454c-3.345,7.05-8.87,12.822-13.773,18.823
		c-32.694,36.448-74.897,62.878-118.379,84.62c-3.689,2-7.608,3.509-11.674,4.492C918.76,500.285,929.991,470.084,943.715,442.112
		 M964.521,431.078c0.656,5.542,3.837,11.379,9.805,12.412c7.673,2,14.953-5.312,14.461-12.887
		c-2.935,4.607-6.821,10.051-13.117,8.952C970.112,439.702,968.046,434.127,964.521,431.078z"/>
	<path fill="#4E4344" stroke="#4E4344" stroke-width="0.5" d="M804.316,431.324c2.23,0.623,2.738,3.148,4.099,4.771
		c2.984,3.656,8.427,4.361,12.641,2.623c3.46-1.443,5.034-5.083,7.198-7.87c0.935,7.919-7.559,15.134-15.166,12.379
		C807.743,441.817,804.906,436.456,804.316,431.324z"/>
	<path fill="#4E4344" stroke="#4E4344" stroke-width="0.5" d="M964.521,431.078c3.525,3.05,5.591,8.624,11.149,8.477
		c6.296,1.099,10.182-4.345,13.117-8.952c0.492,7.575-6.788,14.888-14.461,12.887C968.358,442.457,965.177,436.62,964.521,431.078z"
		/>
	<path fill="#F2E2C9" stroke="#F2E2C9" stroke-width="0.5" d="M603.384,494.202c6.198-2.049,12.231,2.033,17.659,4.558
		c19.2,10.395,37.432,22.462,56.779,32.595c8.018,4.247,16.216,9.149,25.578,9.378c25.512,1.131,49.516-9.001,72.142-19.593
		c-8.706,19.774-17.494,39.514-26.283,59.255c13.166,15.839,27.348,30.841,40.121,46.974c-16.117,1.787-32.185,4.083-48.302,5.902
		c11.477,24.856,23.053,49.663,34.792,74.388c-25.693-8.952-48.155-24.987-68.322-42.925
		c-46.532-42.285-80.553-97.015-103.901-155.073C601.728,504.892,599.35,498.514,603.384,494.202z"/>
	<path fill="#4E4344" stroke="#4E4344" stroke-width="0.5" d="M876.098,526.65c3.804-6.985,11.395-11.198,19.249-11.477
		c9.477-0.459,21.348,5.148,21.807,15.806c-13.805-0.082-27.611-0.164-41.416,0.066C875.835,529.945,876.016,527.748,876.098,526.65
		z"/>
</g>
<g>
	<path fill="#ED8868" stroke="#ED8868" stroke-width="0.5" d="M1962.38,322.848c-1.443-23.233,0-46.581,3.23-69.601
		c33.136,5.64,66.338,14.543,95.687,31.349c41.695-18.544,91.146-18.691,132.824,0c29.464-16.691,62.633-25.791,95.851-31.333
		c4.968,39.367,7.198,80.881-6.608,118.805c-44.105,26.283-77.406,67.568-101.655,112.247
		c-16.183,30.218-27.775,63.124-31.792,97.277c-8.329-15.625-33.464-16.986-42.859-1.804c-0.229,0.656-0.672,1.951-0.885,2.591
		c-2.59-26.561-10.625-52.352-21.298-76.717c-13.084-29.332-30.316-56.861-51.139-81.308
		c-17.576-20.643-38.071-38.957-61.567-52.582C1965.954,356.214,1963.577,339.457,1962.38,322.848 M1983.006,277.382
		c-1.213,15.855-0.705,31.956,3.246,47.434c13.658-13.035,28.775-24.676,45.778-33.038
		C2017.29,282.842,1999.894,279.53,1983.006,277.382 M2223.633,291.778c16.839,8.477,32.071,19.839,45.515,33.021
		c4.312-15.396,4.443-31.611,3.263-47.466C2255.622,279.661,2238.258,282.76,2223.633,291.778z"/>
	<path fill="#FAF0DD" stroke="#FAF0DD" stroke-width="0.5" d="M1983.006,277.382c16.888,2.148,34.284,5.46,49.024,14.396
		c-17.003,8.362-32.12,20.003-45.778,33.038C1982.301,309.338,1981.792,293.237,1983.006,277.382z"/>
	<path fill="#FAF0DD" stroke="#FAF0DD" stroke-width="0.5" d="M2223.633,291.778c14.625-9.018,31.989-12.117,48.778-14.445
		c1.18,15.855,1.05,32.071-3.263,47.466C2255.704,311.617,2240.472,300.254,2223.633,291.778z"/>
	<path fill="#FAF0DD" stroke="#FAF0DD" stroke-width="0.5" d="M1972.168,371.774c23.495,13.625,43.99,31.939,61.567,52.582
		c20.823,24.446,38.055,51.975,51.139,81.308c10.674,24.364,18.708,50.155,21.298,76.717c-0.115,0.836-0.328,2.509-0.443,3.345
		c14.642,0.115,29.283,0,43.941,0.049l0.115-2.164c0.033-0.508,0.098-1.508,0.131-2.017c4.017-34.153,15.609-67.059,31.792-97.277
		c24.25-44.679,57.55-85.964,101.655-112.247c14.625,29.054,21.413,61.846,20.757,94.31c-0.016,3.476-0.639,7.017-2.951,9.739
		c-20.741,28.906-48.925,51.483-78.127,71.339c-3.853,2.492-7.755,4.935-11.625,7.362c-3.673,1.902-6.64,4.771-8.526,8.46
		c-4.788,8.673-12.494,16.576-12.641,27.07c-0.656,9.526,4.279,18.724,11.953,24.217c9.46,6.968,13.543,20.233,9.493,31.284
		c-1.771,6.247-6.952,10.477-10.641,15.527c-8.067,11.149-7.23,27.693,1.935,37.957c7.788,8.542,16.642,16.068,24.282,24.742
		c-67.469-10.002-132.938-32.907-192.357-66.322c-23.561-13.018-47.22-25.889-70.207-39.908c-3.591-2.394-7.673-4.312-10.264-7.886
		c11.592,1.886,23.184-1.279,34.595-3.181c34.694-6.837,68.781-16.281,103.049-24.938c-26.07-13.723-51.975-28.037-75.667-45.646
		c-24.446-18.15-47.909-38.596-64.781-64.207C1949.968,437.571,1956.903,402.713,1972.168,371.774 M2040.654,468.247
		c-8.919,0.918-13.887,12.625-8.132,19.593c5.001,7.411,17.461,6.296,21.102-1.869
		C2058.296,477.511,2050.082,466.329,2040.654,468.247 M2211.156,468.264c-8.919,0.935-13.789,12.608-8.1,19.56
		c4.984,7.378,17.445,6.345,21.102-1.82C2228.88,477.528,2220.6,466.264,2211.156,468.264z"/>
	<path fill="#ED8868" stroke="#ED8868" stroke-width="0.5" d="M2301.169,476.118c2.312-2.722,2.935-6.263,2.951-9.739
		c69.896,0.033,139.809-0.131,209.705,0.082c42.367,0.525,82.39,29.66,95.949,69.781c7.214,19.036,5.558,39.629,5.837,59.567
		c-37.957-6.575-75.733-14.265-113.591-21.397c-41.17-7.526-82.553-13.969-123.822-20.987c-35.333-6.165-71.257-8.788-107.115-8.001
		c-16.052-0.213-32.021,2.115-48.04,2.033C2252.244,527.601,2280.429,505.024,2301.169,476.118z"/>
	<path fill="#4E4344" stroke="#4E4344" stroke-width="0.5" d="M2040.654,468.247c9.428-1.918,17.642,9.264,12.969,17.724
		c-3.64,8.165-16.101,9.28-21.102,1.869C2026.767,480.872,2031.735,469.166,2040.654,468.247z"/>
	<path fill="#4E4344" stroke="#4E4344" stroke-width="0.5" d="M2211.156,468.264c9.444-2,17.724,9.264,13.002,17.74
		c-3.656,8.165-16.117,9.198-21.102,1.82C2197.367,480.872,2202.236,469.198,2211.156,468.264z"/>
	<path fill="#C4745D" stroke="#C4745D" stroke-width="0.5" d="M2223.043,547.456c16.019,0.082,31.989-2.246,48.04-2.033
		c35.858-0.787,71.781,1.836,107.115,8.001c41.269,7.017,82.652,13.461,123.822,20.987c37.858,7.132,75.635,14.822,113.591,21.397
		c0.017,1.279,0.049,3.82,0.066,5.083c-13.461-1.148-26.578-4.755-39.891-6.935c-43.941-8.329-87.784-17.232-132.004-24.119
		c-41.679-6.509-83.079-15.609-125.314-17.921c-35.677-2.689-71.535-0.836-107.049,2.902
		C2215.287,552.392,2219.19,549.949,2223.043,547.456z"/>
	<path fill="#ED8868" stroke="#ED8868" stroke-width="0.5" d="M2211.418,554.818c35.514-3.738,71.372-5.591,107.049-2.902
		c42.236,2.312,83.636,11.412,125.314,17.921c44.22,6.886,88.063,15.789,132.004,24.119c13.313,2.181,26.43,5.788,39.891,6.935
		l0.541,0.033c1.246,28.185-1.377,57.615-14.888,82.898c-7.099,12.69-16.445,25.299-30.234,31.136
		c-17.642,7.821-36.907,10.871-55.878,13.51c-42.892,5.247-86.21,5.837-129.364,5.378c-41.138-0.607-82.242-2.476-123.265-5.394
		c-11.789-0.918-23.479-2.574-35.169-4.197l-0.148-0.18c-7.64-8.673-16.494-16.199-24.282-24.742
		c-9.165-10.264-10.001-26.807-1.935-37.957c3.689-5.05,8.87-9.28,10.641-15.527c4.05-11.051-0.032-24.315-9.493-31.284
		c-7.674-5.493-12.609-14.691-11.953-24.217c0.147-10.493,7.854-18.396,12.641-27.07
		C2204.778,559.589,2207.745,556.72,2211.418,554.818z"/>
	<path fill="#4E4344" stroke="#4E4344" stroke-width="0.5" d="M2107.058,579.789c9.395-15.183,34.53-13.822,42.859,1.804
		c-0.033,0.508-0.098,1.508-0.131,2.017c-13.56,0.033-27.119,0.246-40.678-0.049
		C2108.599,582.609,2107.566,580.724,2107.058,579.789z"/>
	<path fill="#3B3032" stroke="#3B3032" stroke-width="0.5" d="M2107.058,579.789c0.509,0.935,1.541,2.82,2.05,3.771
		c13.56,0.295,27.119,0.082,40.678,0.049l-0.115,2.164c-14.658-0.049-29.3,0.066-43.941-0.049c0.115-0.836,0.328-2.509,0.443-3.345
		C2106.385,581.74,2106.828,580.445,2107.058,579.789z"/>
</g>
<g>
	<path fill="#ED8868" stroke="#ED8868" stroke-width="0.5" d="M1225.922,206.65c0.771-11.576,1.574-23.217,3.689-34.645
		c35.268,6.247,70.683,15.576,101.934,33.546c44.335-19.855,97.113-20.118,141.399-0.016
		c31.579-17.626,66.896-27.627,102.442-33.382c5.558,42.023,7.575,86.259-6.903,126.774
		c-44.433,26.168-78.438,67.027-103.869,111.312c-19.823,34.94-34.382,73.388-38.596,113.526
		c-7.378-18.921-37.481-19.446-46.696-1.82c-6.493-54.877-31.12-106.246-63.682-150.335c-21.708-28.824-47.794-54.959-79.291-72.978
		C1225.283,269.397,1224.446,237.507,1225.922,206.65 M1247.958,197.976c-0.967,16.789-1,33.907,3.492,50.254
		c14.658-13.691,30.66-26.135,48.712-35.087C1284.439,203.731,1265.977,199.944,1247.958,197.976 M1505.539,212.257
		c0.065,0.41,0.18,1.23,0.246,1.64c17.15,8.559,32.808,20.085,46.319,33.677c0.41-0.18,1.197-0.525,1.59-0.705
		c4.001-15.937,4.574-32.628,3.066-48.958C1539.085,199.796,1521.361,203.912,1505.539,212.257z"/>
	<path fill="#FAF0DD" stroke="#FAF0DD" stroke-width="0.5" d="M1247.958,197.976c18.019,1.968,36.481,5.755,52.205,15.166
		c-18.052,8.952-34.054,21.397-48.712,35.087C1246.958,231.883,1246.991,214.766,1247.958,197.976z"/>
	<path fill="#FAF0DD" stroke="#FAF0DD" stroke-width="0.5" d="M1505.539,212.257c15.822-8.346,33.546-12.461,51.221-14.346
		c1.508,16.33,0.935,33.021-3.066,48.958c-0.394,0.18-1.181,0.525-1.59,0.705c-13.51-13.592-29.169-25.119-46.319-33.677
		C1505.719,213.487,1505.604,212.667,1505.539,212.257z"/>
	<path fill="#FAF0DD" stroke="#FAF0DD" stroke-width="0.5" d="M1706.373,258.346c18.167-25.496,44.433-44.351,72.864-56.878
		c4.64,53.156,25.43,103.721,52.5,149.252c11.674,22.495,17.199,47.614,20.757,72.536c-15.035-17.822-33.382-32.448-52.008-46.302
		c2.246,10.28,1.82,20.872,1.344,31.316c-1.148,15.379-3.131,30.726-6.394,45.81c-1.394,5.673-2.377,11.805-6.378,16.363
		c-3.361-12.936-8.969-25.119-16.019-36.448c-10.231-17.15-21.987-33.3-33.874-49.319c-5.706,4.706-8.264,11.838-10.969,18.462
		c-7.608,20.003-12.789,40.81-17.986,61.518c-4.23-2.328-8.149-5.23-11.198-8.985c-10.362-12.215-16.953-26.988-23.463-41.465
		c-2.41-27.07-2.361-54.517,1.803-81.439C1681.5,306.288,1690.617,280.219,1706.373,258.346z"/>
	<path fill="#FAF0DD" stroke="#FAF0DD" stroke-width="0.5" d="M1236.35,298.631c31.497,18.019,57.583,44.154,79.291,72.978
		c32.562,44.089,57.189,95.457,63.682,150.335c-0.098,1.262-0.262,3.771-0.361,5.034c-2.968-0.016-5.952-0.377-8.592-1.771
		c-11.051-5.345-21.938-11.018-32.71-16.904c-27.791-15.396-54.451-33.021-78.553-53.762
		c-16.625-14.724-33.104-30.431-44.597-49.581C1212.674,368.445,1220.151,331.44,1236.35,298.631 M1305.934,402.434
		c-5.771,2.591-9.067,9.493-7.231,15.593c1.705,7.231,10.379,11.772,17.281,8.903c7.263-2.492,11.035-11.903,7.099-18.609
		C1320.002,402.188,1312.099,399.745,1305.934,402.434z"/>
	<path fill="#FAF0DD" stroke="#FAF0DD" stroke-width="0.5" d="M1464.615,410.239c25.43-44.285,59.435-85.144,103.869-111.312
		c16.314,32.923,24.053,70.355,21.43,106.984c-18.888,28.726-45.63,51.336-73.274,71.306c-23.43,16.675-48.385,31.152-74.11,43.974
		c-5.296,2.509-10.461,6.132-16.593,5.788c0.016-0.803,0.066-2.41,0.082-3.214C1430.232,483.627,1444.792,445.178,1464.615,410.239
		 M1487.848,402.483c-9.723,3.984-10.133,19.364-0.541,23.758c8.788,5.263,20.807-3.246,19.282-13.232
		C1505.768,404.32,1495.701,398.729,1487.848,402.483z"/>
	<path fill="#ED8868" stroke="#ED8868" stroke-width="0.5" d="M1800.486,376.955c18.626,13.855,36.973,28.48,52.008,46.302
		c5.427,40.268,4.296,81.537-4.279,121.297c-8.297,37.842-24.118,74.766-50.024,103.95c-23.594,27.103-55.779,46.089-90.358,55.386
		c-39.235,10.674-80.635,10.461-120.658,4.935c-4.886-1.295-8.641,2.918-12.871,4.574c-23.43,12.084-49.959,14.494-75.487,19.167
		c-23.397,3.869-46.909,7.214-70.585,8.591c-4.378,0.23-8.952,0.82-13.149-0.738c-2.361-0.836-3.345-3.591-2.115-5.771
		c3.05-6.132,8.378-10.69,13.478-15.101c12.428-10.739,26.348-19.528,39.809-28.857c-29.382-1.066-57.189-12.986-81.701-28.578
		c-0.066,13.691-0.246,27.381-0.476,41.072c-0.229,3.804-0.098,7.657-0.82,11.412c-2.164,5.05-5.23,9.641-7.722,14.51
		c-4.197-4.427-7.919-9.28-11.805-13.969c-3.525,4.525-6.739,9.264-10.526,13.576c-2.722-4.771-8.427-8.362-8.28-14.297
		c-0.377-0.148-1.148-0.426-1.525-0.574l-0.508-0.18c-7.427-43.433-8.739-87.604-9.428-131.578
		c-0.541-24.659,0.836-49.335,4.197-73.782c10.772,5.886,21.659,11.559,32.71,16.904c2.64,1.394,5.624,1.754,8.592,1.771
		c15.658-0.148,31.316-0.131,46.974,0c6.132,0.344,11.297-3.279,16.593-5.788c25.725-12.822,50.68-27.299,74.11-43.974
		c32.284,28.955,60.354,62.797,81.176,100.901c11.198,19.987,21.036,41.547,22.479,64.748c16.953,5.116,36.612,6.198,52.287-3.246
		c13.805-8.296,21.02-23.955,23.807-39.285c4.476-25.217,1.148-51.057-3.558-75.995c-7.641-36.366-14.609-73.011-17.281-110.132
		c6.509,14.478,13.1,29.25,23.463,41.465c3.05,3.755,6.968,6.657,11.198,8.985c5.198-20.708,10.379-41.515,17.986-61.518
		c2.705-6.624,5.263-13.756,10.969-18.462c11.887,16.019,23.643,32.169,33.874,49.319c7.05,11.33,12.658,23.512,16.019,36.448
		c4-4.558,4.984-10.69,6.378-16.363c3.263-15.084,5.247-30.431,6.394-45.81C1802.306,397.827,1802.732,387.235,1800.486,376.955z"/>
	<path fill="#4E4344" stroke="#4E4344" stroke-width="0.5" d="M1305.934,402.434c6.165-2.689,14.068-0.246,17.15,5.886
		c3.935,6.706,0.164,16.117-7.099,18.609c-6.903,2.869-15.576-1.672-17.281-8.903
		C1296.867,411.927,1300.163,405.025,1305.934,402.434z"/>
	<path fill="#4E4344" stroke="#4E4344" stroke-width="0.5" d="M1487.848,402.483c7.854-3.755,17.921,1.836,18.741,10.526
		c1.525,9.985-10.493,18.495-19.282,13.232C1477.715,421.847,1478.125,406.467,1487.848,402.483z"/>
	<path fill="#4E4344" stroke="#4E4344" stroke-width="0.5" d="M1379.323,521.944c9.215-17.626,39.318-17.101,46.696,1.82
		c-0.016,0.803-0.066,2.41-0.082,3.214c-15.658-0.131-31.316-0.148-46.974,0C1379.06,525.715,1379.224,523.207,1379.323,521.944z"/>
	<path fill="#4E4344" stroke="#4E4344" stroke-width="0.5" d="M1383.258,714.597c0.721-3.755,0.59-7.608,0.82-11.412
		c0.115,10.461-0.754,20.921-0.361,31.382c0.475,8.87-5.985,17.478-14.51,19.806c-11.69,3.869-25.299-5.657-25.447-18.003
		c0.033-7.509-0.148-15.035-0.361-22.528c0.377,0.148,1.148,0.426,1.525,0.574c-0.147,5.935,5.558,9.526,8.28,14.297
		c3.788-4.312,7.001-9.051,10.526-13.576c3.886,4.689,7.608,9.542,11.805,13.969
		C1378.027,724.238,1381.094,719.647,1383.258,714.597z"/>
</g>
<g>
	<path fill="#FAF0DD" stroke="#FAF0DD" stroke-width="0.5" d="M207.585,45.232c4.542-3.771,9.215-8.46,15.543-8.575
		c3.296-0.246,5.214,3.099,5.493,5.935c0.918,8.575-1.115,17.101-2.623,25.496c-5.427,26.43-11.822,52.713-15.035,79.537
		c-1.328,15.773,5.968,30.595,14.019,43.646c-6.542-2.23-13.264-3.902-19.888-5.919c-3.984-0.902-5.64-5.099-8.083-7.903
		c-1.131,1.64-2.246,3.279-3.378,4.919c-9.051-1.787-18.019-4.017-27.184-5.148c-1.918,16.298-3.656,32.644-3.82,49.073
		c0.033,2.295-0.361,4.64-1.738,6.542c-4.411,6.837-8.985,13.576-13.281,20.479c-13.084-11.395-25.643-23.43-38.17-35.448
		c-15.642,14.806-30.611,30.316-46.089,45.318c8.346-35.858,23.676-69.83,43.023-101.048
		C133.721,118.177,168.382,78.942,207.585,45.232z"/>
	<path fill="#ED8868" stroke="#ED8868" stroke-width="0.5" d="M166.448,177.219c9.165,1.131,18.134,3.361,27.184,5.148
		c1.131-1.64,2.246-3.279,3.378-4.919c2.443,2.804,4.099,7.001,8.083,7.903c6.624,2.017,13.346,3.689,19.888,5.919
		c15.166,5.132,30.021,11.313,43.908,19.331c44.335-19.937,97.113-20.003,141.448,0.016c31.48-17.74,66.83-27.66,102.327-33.382
		c4.542,33.333,6.099,67.486,0.213,100.753c-1.607,8.821-4.05,17.462-7.231,25.84c-33.202,19.774-60.763,47.843-83.177,79.111
		c-26.857,37.957-47.745,80.898-56.451,126.79c-1.426,7.378-2.361,14.838-2.755,22.331h-0.279c-0.049-0.967-0.18-2.919-0.246-3.886
		c-7.444-18.429-36.957-18.429-46.105-1.377c-6.378-52.385-29.119-101.622-59.485-144.35c-22.495-31.136-49.926-59.501-83.455-78.75
		c-16.084,32.218-23.413,68.65-22.069,104.573c1.443,6.476,6.722,11.248,10.461,16.527c19.856,24.266,44.286,44.384,69.994,62.157
		c-20.2,21.397-37.465,49.172-35.055,79.75c-41.515-33.087-79.111-72.224-105.623-118.51
		c-22.102-38.416-35.071-82.39-34.907-126.839c0.066-19.577,2.41-39.121,6.854-58.173c15.478-15.002,30.447-30.513,46.089-45.318
		c12.527,12.018,25.086,24.053,38.17,35.448c4.296-6.903,8.87-13.641,13.281-20.479c1.377-1.902,1.771-4.247,1.738-6.542
		C162.791,209.863,164.529,193.517,166.448,177.219 M185.303,203.01c-1.262,16.773-1.115,33.972,3.46,50.286
		c14.51-13.887,30.726-25.971,48.581-35.219C221.587,208.88,203.273,204.994,185.303,203.01 M442.064,218.012
		c7.296,4.509,15.019,8.346,21.971,13.412c9.592,6.329,17.888,14.314,26.512,21.823c4.394-16.33,4.902-33.481,3.378-50.254
		C476.02,205.01,457.771,208.847,442.064,218.012z"/>
	<path fill="#FAF0DD" stroke="#FAF0DD" stroke-width="0.5" d="M185.303,203.01c17.97,1.984,36.284,5.87,52.041,15.068
		c-17.855,9.247-34.071,21.331-48.581,35.219C184.188,236.982,184.04,219.783,185.303,203.01z"/>
	<path fill="#FAF0DD" stroke="#FAF0DD" stroke-width="0.5" d="M442.064,218.012c15.707-9.165,33.956-13.002,51.86-15.019
		c1.525,16.773,1.017,33.923-3.378,50.254c-8.624-7.509-16.921-15.494-26.512-21.823
		C457.082,226.358,449.36,222.521,442.064,218.012z"/>
	<path fill="#FAF0DD" stroke="#FAF0DD" stroke-width="0.5" d="M151.626,408.271c-1.344-35.924,5.985-72.355,22.069-104.573
		c33.53,19.249,60.96,47.614,83.455,78.75c30.365,42.728,53.107,91.965,59.485,144.35l-0.098,0.918
		c-0.574,1.607-1.164,3.197-1.771,4.788c-5.148-1.361-9.952-3.673-14.658-6.132c-23.594-11.461-46.319-24.709-68.027-39.416
		c-25.709-17.773-50.139-37.891-69.994-62.157C158.348,419.519,153.068,414.747,151.626,408.271 M243.476,407.369
		c-9.674,3.64-10.821,18.609-1.656,23.512c7.624,5.23,19.183-0.508,19.937-9.657C263.38,411.55,252.412,403.205,243.476,407.369z"/>
	<path fill="#FAF0DD" stroke="#FAF0DD" stroke-width="0.5" d="M422.471,382.939c22.413-31.267,49.975-59.337,83.177-79.111
		c16.134,32.234,23.364,68.666,22.02,104.623c0.131,2.541-1.804,4.443-3.017,6.46c-14.789,21.036-33.841,38.629-53.73,54.713
		c-7.837,5.87-15.593,11.871-23.774,17.281c-24.266,16.986-50.336,31.185-77.061,43.859c-2.131,1-4.492,1.295-6.821,1.295
		c0.393-7.493,1.328-14.953,2.755-22.331C374.725,463.837,395.614,420.896,422.471,382.939 M425.471,407.353
		c-9.133,3.46-10.854,17.232-2.804,22.774c7.198,6.001,19.429,1.344,20.888-7.903C446.081,412.321,434.784,402.992,425.471,407.353z
		"/>
	<path fill="#4E4344" stroke="#4E4344" stroke-width="0.5" d="M243.476,407.369c8.936-4.165,19.905,4.181,18.281,13.855
		c-0.754,9.149-12.313,14.888-19.937,9.657C232.654,425.979,233.802,411.009,243.476,407.369z"/>
	<path fill="#4E4344" stroke="#4E4344" stroke-width="0.5" d="M425.471,407.353c9.313-4.361,20.61,4.968,18.085,14.871
		c-1.459,9.247-13.691,13.904-20.888,7.903C414.617,424.585,416.338,410.812,425.471,407.353z"/>
	<path fill="#ED8868" stroke="#ED8868" stroke-width="0.5" d="M447.146,486.906c8.182-5.411,15.937-11.412,23.774-17.281
		c7.444,22.856,11.248,47.138,10.034,71.175c-3.378-5.329-4.771-11.559-7.575-17.15C466.723,510.041,457.41,497.941,447.146,486.906
		z"/>
	<path fill="#F2E2C9" stroke="#F2E2C9" stroke-width="0.5" d="M232.081,486.955c21.708,14.707,44.433,27.955,68.027,39.416
		c4.706,2.459,9.51,4.771,14.658,6.132c0.607-1.59,1.197-3.181,1.771-4.788l-0.115,1.771l-0.131,2.41
		c15.56,0.049,31.136-0.246,46.696,0.164h0.279c2.328,0,4.689-0.295,6.821-1.295c26.725-12.674,52.795-26.873,77.061-43.859
		c10.264,11.034,19.577,23.135,26.234,36.743c2.804,5.591,4.197,11.821,7.575,17.15c0.066,7.788,2.082,15.461,1.377,23.266
		c-1.033,18.347-8.837,35.546-18.609,50.844c-15.461,23.217-35.514,42.974-56.878,60.731c-21.118,17.38-43.597,33.136-67.207,46.942
		c-23.004-13.445-44.925-28.742-65.567-45.581c-21.987-18.167-42.777-38.285-58.517-62.206
		c-9.444-14.478-16.642-30.775-18.527-48.089C194.616,536.127,211.881,508.352,232.081,486.955z"/>
	<path fill="#4E4344" stroke="#4E4344" stroke-width="0.5" d="M316.635,526.797c9.149-17.052,38.662-17.052,46.105,1.377
		c-5.788,2.607-12.199,1.541-18.314,1.672c-9.346,0.033-18.675,0.066-28.004-0.361l0.115-1.771L316.635,526.797z"/>
	<path fill="#32292E" stroke="#32292E" stroke-width="0.5" d="M344.426,529.847c6.116-0.131,12.527,0.935,18.314-1.672
		c0.066,0.967,0.197,2.919,0.246,3.886c-15.56-0.41-31.136-0.115-46.696-0.164l0.131-2.41
		C325.751,529.913,335.08,529.88,344.426,529.847z"/>
	<path fill="#ED8868" stroke="#ED8868" stroke-width="0.5" d="M215.553,614.795c15.74,23.922,36.53,44.04,58.517,62.206
		c20.643,16.839,42.564,32.136,65.567,45.581c23.61-13.805,46.089-29.562,67.207-46.942c21.364-17.757,41.416-37.514,56.878-60.731
		c-1.181,22.446,2.853,45.63-4.312,67.404c-6.575,20.38-21.151,38.776-41.088,47.335c-1.771,0.836-3.869,1.508-4.64,3.509
		c-2.705,4.443-5.214,8.985-7.526,13.641c-4.345-4.263-7.968-9.149-11.74-13.887c-3.787,4.328-7.034,9.083-10.575,13.609
		c-2.886-3.771-5.624-7.673-8.657-11.33l-0.869-0.049c-23.118-0.016-46.253,0.279-69.371-0.131l-0.312-2.41
		c-2.525,4.755-5.099,9.493-7.624,14.248c-4.247-4.46-7.919-9.395-11.92-14.051c-3.41,4.624-6.772,9.28-10.428,13.707
		c-2.804-4.197-6.05-8.067-9.264-11.953c-0.131-0.754-0.377-2.263-0.492-3.017c-20.446-7.87-36.415-25.233-43.81-45.712
		C212.405,663.146,216.39,638.454,215.553,614.795z"/>
	<path fill="#4E4344" stroke="#4E4344" stroke-width="0.5" d="M297.009,746.848c2.525-4.755,5.099-9.493,7.624-14.248l0.312,2.41
		c0,10.477,2.738,23.118-5.214,31.529c-7.739,8.919-23.217,8.247-30.283-1.164c-6.837-8.723-3.902-20.61-4.05-30.824
		c3.214,3.886,6.46,7.755,9.264,11.953c3.656-4.427,7.017-9.083,10.428-13.707C289.089,737.453,292.762,742.388,297.009,746.848z"/>
	<path fill="#4E4344" stroke="#4E4344" stroke-width="0.5" d="M383.842,746.52c3.542-4.525,6.788-9.28,10.575-13.609
		c3.771,4.738,7.395,9.624,11.74,13.887c2.312-4.656,4.82-9.198,7.526-13.641c0.672,8.575,1.279,17.445-0.443,25.922
		c-3.82,13.592-22.938,18.527-32.792,8.395c-9.231-8.198-5.607-21.528-6.132-32.333l0.869,0.049
		C378.218,738.846,380.956,742.749,383.842,746.52z"/>
</g>
</svg>
