<?xml version="1.0" encoding="UTF-8" standalone="no"?>
<!-- Created with Inkscape (http://www.inkscape.org/) -->

<svg
   xmlns:dc="http://purl.org/dc/elements/1.1/"
   xmlns:cc="http://creativecommons.org/ns#"
   xmlns:rdf="http://www.w3.org/1999/02/22-rdf-syntax-ns#"
   xmlns:svg="http://www.w3.org/2000/svg"
   xmlns="http://www.w3.org/2000/svg"
   xmlns:sodipodi="http://sodipodi.sourceforge.net/DTD/sodipodi-0.dtd"
   xmlns:inkscape="http://www.inkscape.org/namespaces/inkscape"
   width="210mm"
   height="297mm"
   viewBox="0 0 210 297"
   version="1.1"
   id="svg8"
   inkscape:version="0.92.5 (2060ec1f9f, 2020-04-08)"
   sodipodi:docname="Hintergrund.svg">
  <defs
     id="defs2">
    <style
       type="text/css"
       id="style6">
    .fil0 {fill:black}
  </style>
  </defs>
  <sodipodi:namedview
     id="base"
     pagecolor="#ffffff"
     bordercolor="#666666"
     borderopacity="1.0"
     inkscape:pageopacity="0.0"
     inkscape:pageshadow="2"
     inkscape:zoom="0.98994949"
     inkscape:cx="392.97259"
     inkscape:cy="543.93662"
     inkscape:document-units="mm"
     inkscape:current-layer="layer1"
     showgrid="false"
     inkscape:window-width="1920"
     inkscape:window-height="1027"
     inkscape:window-x="0"
     inkscape:window-y="26"
     inkscape:window-maximized="0" />
  <metadata
     id="metadata5">
    <rdf:RDF>
      <cc:Work
         rdf:about="">
        <dc:format>image/svg+xml</dc:format>
        <dc:type
           rdf:resource="http://purl.org/dc/dcmitype/StillImage" />
        <dc:title></dc:title>
      </cc:Work>
    </rdf:RDF>
  </metadata>
  <g
     inkscape:label="Ebene 1"
     inkscape:groupmode="layer"
     id="layer1">
    <path
       style="fill:#ff0000;stroke-width:0.26792485"
       d="M 89.514803,207.65526 C 72.588506,200.7571 58.849674,187.27741 49.290104,168.18918 42.903804,155.43725 37.921708,138.58223 35.052183,120.02058 33.543066,110.25879 32.281904,96.390265 32.166053,88.282937 l -0.05915,-4.141383 30.137476,-9.742764 30.137466,-9.742763 30.145645,9.743495 30.14561,9.743497 -0.0725,3.202913 c -0.16297,7.197428 -1.39858,20.785798 -2.74074,30.140298 -5.35248,37.30623 -17.21214,63.43213 -35.90187,79.08913 -5.75904,4.82455 -13.07279,9.06631 -20.124413,11.6716 l -1.503653,0.55554 z"
       id="path73-5"
       inkscape:connector-curvature="0" />
    <path
       style="fill:#00001b;fill-opacity:1;stroke-width:0.26724246"
       d="M 89.468781,214.22946 C 72.585581,207.34888 58.881751,193.9035 49.346521,174.8639 42.976491,162.14445 38.007089,145.33236 35.144871,126.81798 33.6396,117.08106 32.381647,103.24785 32.266094,95.161173 l -0.05903,-4.130833 30.060717,-9.71795 30.06071,-9.717949 30.068829,9.718679 30.06884,9.71868 -0.0723,3.194755 c -0.16257,7.179095 -1.39505,20.732855 -2.73377,30.063525 -5.33886,37.21121 -17.1683,63.27058 -35.81042,78.8877 -5.74439,4.81226 -13.03951,9.04323 -20.073169,11.64189 l -1.49981,0.55411 z"
       id="path73"
       inkscape:connector-curvature="0" />
    <path
       style="fill:#d50000;fill-opacity:1;stroke-width:0.50507629"
       d=""
       id="path4954"
       inkscape:connector-curvature="0"
       transform="scale(0.26458333)" />
    <path
       style="fill:#d50000;fill-opacity:1;stroke-width:0.50507629"
       d=""
       id="path4956"
       inkscape:connector-curvature="0"
       transform="scale(0.26458333)" />
    <path
       style="fill:#d50000;fill-opacity:1;stroke-width:0.50507629"
       d=""
       id="path4958"
       inkscape:connector-curvature="0"
       transform="scale(0.26458333)" />
    <path
       style="fill:#d50000;fill-opacity:1;stroke-width:0.50507629"
       d=""
       id="path4962"
       inkscape:connector-curvature="0"
       transform="scale(0.26458333)" />
    <path
       style="fill:#d50000;fill-opacity:1;stroke-width:0.50507629"
       d=""
       id="path4966"
       inkscape:connector-curvature="0"
       transform="scale(0.26458333)" />
  </g>
</svg>
