<?xml version="1.0" encoding="UTF-8" standalone="no"?>
<!-- Created with Inkscape (http://www.inkscape.org/) -->

<svg
   width="210mm"
   height="297mm"
   viewBox="0 0 210 297"
   version="1.1"
   id="svg8"
   inkscape:version="1.2.2 (b0a8486541, 2022-12-01)"
   sodipodi:docname="Logo_design.svg"
   inkscape:export-filename="/home/luedemann/Downloads/logo_design/Logo_design_1080.png"
   inkscape:export-xdpi="404.30597"
   inkscape:export-ydpi="404.30597"
   xmlns:inkscape="http://www.inkscape.org/namespaces/inkscape"
   xmlns:sodipodi="http://sodipodi.sourceforge.net/DTD/sodipodi-0.dtd"
   xmlns="http://www.w3.org/2000/svg"
   xmlns:svg="http://www.w3.org/2000/svg"
   xmlns:rdf="http://www.w3.org/1999/02/22-rdf-syntax-ns#"
   xmlns:cc="http://creativecommons.org/ns#"
   xmlns:dc="http://purl.org/dc/elements/1.1/">
  <defs
     id="defs2">
    <style
       type="text/css"
       id="style6">
    .fil0 {fill:black}
  </style>
  </defs>
  <sodipodi:namedview
     id="base"
     pagecolor="#ffffff"
     bordercolor="#666666"
     borderopacity="1.0"
     inkscape:pageopacity="0.0"
     inkscape:pageshadow="2"
     inkscape:zoom="1.4142136"
     inkscape:cx="474.46865"
     inkscape:cy="608.11183"
     inkscape:document-units="mm"
     inkscape:current-layer="layer1"
     showgrid="false"
     inkscape:window-width="2256"
     inkscape:window-height="1473"
     inkscape:window-x="0"
     inkscape:window-y="0"
     inkscape:window-maximized="1"
     inkscape:showpageshadow="2"
     inkscape:pagecheckerboard="0"
     inkscape:deskcolor="#d1d1d1" />
  <metadata
     id="metadata5">
    <rdf:RDF>
      <cc:Work
         rdf:about="">
        <dc:format>image/svg+xml</dc:format>
        <dc:type
           rdf:resource="http://purl.org/dc/dcmitype/StillImage" />
      </cc:Work>
    </rdf:RDF>
  </metadata>
  <g
     inkscape:label="Ebene 1"
     inkscape:groupmode="layer"
     id="layer1">
    <path
       style="fill:#d50000;fill-opacity:1;stroke-width:0.268048"
       d="M 98.81422,208.85246 C 81.88016,201.95114 68.135023,188.46526 58.571067,169.36827 52.181836,156.61049 47.197454,139.74774 44.326612,121.17757 42.816803,111.4113 41.555062,97.536413 41.439158,89.425365 l -0.05918,-4.143283 30.151305,-9.747235 30.151297,-9.747234 30.15948,9.747966 30.15944,9.747968 -0.0725,3.204383 c -0.16305,7.200731 -1.39923,20.79533 -2.742,30.15413 -5.35494,37.32335 -17.22004,63.46123 -35.91835,79.12542 -5.76168,4.82676 -13.07878,9.07047 -20.13364,11.67696 l -1.50435,0.55579 z"
       id="path73-5"
       inkscape:connector-curvature="0"
       inkscape:export-xdpi="300"
       inkscape:export-ydpi="300"
       inkscape:export-filename="Logo_design.png" />
    <path
       style="fill:#000050;fill-opacity:1;stroke-width:0.267242"
       d="M 98.73104,215.49334 C 81.847838,208.61276 68.144008,195.16738 58.608778,176.12778 52.238748,163.40833 47.269346,146.59624 44.407128,128.08186 42.901857,118.34494 41.643904,104.51173 41.528351,96.425051 l -0.08073,-4.126699 30.082421,-9.722084 30.060708,-9.717949 30.06883,9.718679 30.0554,9.714546 -0.0589,3.198889 c -0.16257,7.179097 -1.39505,20.732857 -2.73377,30.063527 -5.33886,37.21121 -17.1683,63.27058 -35.81042,78.8877 -5.74439,4.81226 -13.03951,9.04323 -20.07317,11.64189 l -1.49981,0.55411 z"
       id="path73"
       inkscape:connector-curvature="0"
       inkscape:export-xdpi="300"
       inkscape:export-ydpi="300"
       sodipodi:nodetypes="csssccccccssccc" />
    <path
       style="fill:#d50000;fill-opacity:1;stroke-width:0.50507629"
       d=""
       id="path4954"
       inkscape:connector-curvature="0"
       transform="scale(0.26458333)"
       inkscape:export-xdpi="300"
       inkscape:export-ydpi="300" />
    <path
       style="fill:#d50000;fill-opacity:1;stroke-width:0.50507629"
       d=""
       id="path4956"
       inkscape:connector-curvature="0"
       transform="scale(0.26458333)"
       inkscape:export-xdpi="300"
       inkscape:export-ydpi="300" />
    <path
       style="fill:#d50000;fill-opacity:1;stroke-width:0.50507629"
       d=""
       id="path4958"
       inkscape:connector-curvature="0"
       transform="scale(0.26458333)"
       inkscape:export-xdpi="300"
       inkscape:export-ydpi="300" />
    <path
       style="fill:#d50000;fill-opacity:1;stroke-width:0.50507629"
       d=""
       id="path4962"
       inkscape:connector-curvature="0"
       transform="scale(0.26458333)"
       inkscape:export-xdpi="300"
       inkscape:export-ydpi="300" />
    <path
       style="fill:#d50000;fill-opacity:1;stroke-width:0.50507629"
       d=""
       id="path4966"
       inkscape:connector-curvature="0"
       transform="scale(0.26458333)"
       inkscape:export-xdpi="300"
       inkscape:export-ydpi="300" />
    <path
       style="fill:#000000;fill-opacity:1;stroke-width:0.187089"
       d="m 83.767613,163.09832 c -1.154599,-0.6069 -1.410173,-1.16519 -1.466527,-3.20358 -0.04698,-1.69911 0.04565,-1.82298 0.300969,-1.29634 0.149659,0.30869 0.354108,0.80796 0.550801,1.0523 l 0.357619,0.44428 0.621356,-0.86523 c 0.341746,-0.47587 0.670226,-0.86203 0.729959,-0.85813 0.05973,0.004 0.402873,0.38274 0.762542,0.84189 0.359667,0.45915 0.700061,0.83482 0.756433,0.83482 0.05636,0 0.304145,-0.41861 0.575615,-0.95882 l 0.49066,-0.99976 -0.0678,1.75431 c -0.052,1.00371 -0.20897,1.98789 -0.36524,2.29007 -0.57545,1.1128 -2.101408,1.56602 -3.246363,0.96419 z"
       id="path4987"
       inkscape:connector-curvature="0"
       sodipodi:nodetypes="scccccccsccccs"
       inkscape:export-xdpi="300"
       inkscape:export-ydpi="300" />
    <path
       style="fill:#d50000;fill-opacity:1;stroke-width:0.188988"
       d="m 91.87443,162.15975 c -0.25215,-0.0642 -0.48568,-0.19937 -0.51896,-0.30045 -0.21021,-0.63845 1.79454,-2.52879 4.94617,-4.66392 0.9355,-0.63376 1.77098,-1.21374 1.85665,-1.28885 0.0857,-0.0751 -0.55017,-0.23977 -1.41295,-0.36592 -2.31053,-0.33785 -4.31642,-1.02685 -6.91654,-2.37575 l -2.3151,-1.20104 -0.002,3.24945 c -0.002,3.08808 -0.0259,3.30108 -0.48581,4.28889 l -0.48397,1.03943 -0.749436,-0.80319 c -0.412189,-0.44176 -0.810148,-0.80119 -0.884351,-0.79874 -0.0742,0.002 -0.384394,0.3417 -0.689311,0.75386 -0.503465,0.68055 -0.583417,0.72313 -0.870294,0.46351 -0.984112,-0.89061 -1.429927,-3.00761 -1.908939,-9.06484 -0.436042,-5.51383 -0.259165,-18.20383 0.260977,-18.72397 0.04319,-0.0432 1.092387,0.43974 2.331545,1.07319 l 2.253017,1.15171 3.602012,-0.001 c 2.82703,-0.001 3.75316,-0.0643 4.30449,-0.29462 1.30455,-0.54508 5.68545,-2.99413 8.04168,-4.49554 1.54296,-0.98319 2.4569,-1.45495 2.68092,-1.38385 0.4592,0.14574 4.07071,3.93511 5.75771,6.04125 3.8294,4.78084 6.88301,10.67924 7.35832,14.21346 l 0.1321,0.9823 0.99745,0.22321 c 1.51774,0.33966 4.1708,0.15465 5.24595,-0.36582 2.66968,-1.29237 3.92031,-4.1011 3.92482,-8.81455 0.002,-2.51506 -0.24708,-4.42296 -1.23172,-9.41933 -0.67608,-3.43066 -1.29016,-7.35698 -1.49738,-9.57395 l -0.11482,-1.22843 0.99283,1.88988 c 1.03323,1.96681 3.01625,4.31746 3.3406,3.95992 0.0899,-0.0991 0.35004,-0.94556 0.57811,-1.88105 0.95694,-3.92514 2.51357,-7.97394 3.13395,-8.15141 0.10394,-0.0297 0.4386,0.30389 0.74368,0.74138 0.30508,0.4375 1.04534,1.49475 1.64501,2.34945 2.18337,3.11188 2.97034,4.58787 4.05853,7.61192 0.17061,0.47413 0.6242,-0.60577 1.01532,-2.41727 0.52411,-2.42742 0.79446,-5.17244 0.7252,-7.36327 -0.0337,-1.06565 -0.0284,-1.93736 0.0116,-1.93713 0.22551,10e-4 3.91098,3.10827 5.06269,4.26805 1.6899,1.70172 1.67018,1.60544 1.66121,8.11108 -0.006,4.22809 -0.0649,5.23288 -0.42338,7.20128 -1.27477,6.99988 -3.82668,12.35464 -7.78352,16.33245 -1.93389,1.94414 -3.52743,3.1033 -5.98946,4.35679 -5.14586,2.61992 -11.94448,3.54009 -19.27086,2.60824 l -1.53502,-0.19524 -1.33981,0.67473 c -1.89676,0.95519 -3.97794,1.51028 -8.48339,2.26268 -5.67775,0.94817 -10.81851,1.49967 -11.75571,1.26116 z"
       id="path6154"
       inkscape:connector-curvature="0"
       inkscape:export-xdpi="300"
       inkscape:export-ydpi="300" />
    <path
       style="fill:#ffffff;fill-opacity:1;stroke-width:0.279608"
       d="m 139.87758,128.25592 c -0.86422,-2.43783 -5.8378,-10.24946 -6.43199,-10.10224 -0.55604,0.13773 -2.04558,3.73065 -2.95499,7.12771 -0.51399,1.92 -1.07686,3.48081 -1.25543,3.48129 -0.49576,0.001 -1.61417,-2.50407 -2.78409,-4.79732 -0.9149,-1.79337 -1.23903,-2.54504 -1.40866,-4.8455 -0.23192,-3.14529 0.009,-7.58832 0.79693,-10.77283 1.13059,-4.57223 3.7813,-8.824359 7.24029,-11.614517 1.68303,-1.357591 5.4261,-3.630062 5.62397,-3.414385 0.0524,0.05705 0.36187,1.526541 0.68784,3.265542 0.85015,4.53535 2.17012,8.17151 5.29252,14.57943 1.9036,3.90666 2.59276,6.59418 2.99081,8.24286 0.88933,3.68363 1.22472,3.44567 -1.76313,0.83962 -1.46541,-1.27815 -2.9958,-2.53817 -3.40087,-2.80003 l -0.73651,-0.47613 0.0962,2.49648 c 0.0985,2.55502 -0.56615,7.8977 -1.16912,9.39783 l -0.32325,0.8042 z"
       id="path4975"
       inkscape:connector-curvature="0"
       sodipodi:nodetypes="ccccscccccccccccccc"
       inkscape:export-xdpi="300"
       inkscape:export-ydpi="300" />
    <path
       style="fill:#ffffff;fill-opacity:1;stroke-width:0.266813"
       d="m 92.42681,133.76736 c 1.23075,-9.21949 8.82867,-21.01898 17.02907,-26.44596 l 1.70034,-1.12528 0.55706,1.26436 c 1.31249,2.97891 1.91408,5.642 2.04657,9.05948 l 0.12931,3.33632 -0.77312,0.98432 c -2.41516,3.07493 -6.46773,6.44958 -11.43074,9.51858 -2.79103,1.72592 -7.28479,4.11693 -8.67694,4.6168 l -0.78031,0.28016 z m 9.76784,-11.77508 c 0.44908,-0.30089 0.53207,-0.37105 0.53498,-1.12629 0.003,-0.75524 0.0633,-1.11589 -0.38343,-1.41999 -1.34168,-0.9133 -2.77893,-0.28571 -2.78483,1.24512 -0.007,1.68739 1.20765,2.25638 2.63328,1.30116 z"
       id="path4973"
       inkscape:connector-curvature="0"
       sodipodi:nodetypes="ccccccscccccccsc"
       inkscape:export-xdpi="300"
       inkscape:export-ydpi="300" />
    <path
       style="fill:#ffffff;fill-opacity:1;stroke-width:0.371392"
       d="m 108.59306,99.497003 c -0.86125,-0.68607 -2.84925,-1.996092 -4.41777,-2.911161 l -2.85186,-1.663759 1.87317,-0.714634 c 1.90276,-0.725927 5.39748,-1.496748 6.78588,-1.496748 0.70261,0 0.75998,0.246577 0.71737,3.082961 -0.0255,1.695629 -0.1576,3.503213 -0.29361,4.016852 l -0.24729,0.933886 z"
       id="path4977"
       inkscape:connector-curvature="0"
       inkscape:export-xdpi="300"
       inkscape:export-ydpi="300" />
    <g
       id="g1710"
       transform="translate(9.2787941,1.1811947)"
       inkscape:export-xdpi="300"
       inkscape:export-ydpi="300">
      <path
         inkscape:connector-curvature="0"
         id="path4979"
         d="m 59.340993,98.552638 c -0.332896,-1.776218 -0.390866,-6.633105 -0.08289,-6.944531 0.387483,-0.391815 4.775054,0.479667 6.799471,1.350551 l 1.71441,0.737517 -2.060269,1.239045 c -1.13315,0.681476 -2.980567,2.038579 -4.105379,3.015783 l -2.045106,1.77674 z"
         style="fill:#ffffff;fill-opacity:1;stroke-width:0.358793" />
    </g>
    <path
       style="fill:#ffffff;fill-opacity:1;stroke-width:0.264583"
       d="m 82.27687,133.50626 c -5.591561,-2.90911 -9.665517,-5.76586 -13.450466,-9.43176 -3.423717,-3.31602 -4.14469,-4.38394 -4.142764,-6.13633 0.0036,-3.24157 1.19839,-8.7519 2.417228,-11.14781 l 0.508121,-0.98852 1.644881,1.09329 c 0.907183,0.60297 3.023364,2.48317 4.706911,4.1718 5.641295,5.65832 10.059589,12.87733 11.72146,20.31776 0.530651,2.3758 2.025639,4.86796 -0.03193,3.78013 -0.109141,-0.004 -1.627188,-0.75004 -3.373438,-1.65856 z m -3.588411,-11.69618 c 0.816401,-1.26289 0.145232,-2.74505 -1.368015,-2.74505 -0.791578,0 -1.757376,0.56758 -1.806985,1.37442 -0.09566,1.55582 2.33909,2.66369 3.175,1.37063 z"
       id="path4971"
       inkscape:connector-curvature="0"
       sodipodi:nodetypes="sccccssscssssss"
       inkscape:export-xdpi="300"
       inkscape:export-ydpi="300" />
    <path
       style="fill:#000000;fill-opacity:1;stroke-width:0.210477"
       d="m 76.379013,122.33242 c -0.645579,-0.37024 -0.933108,-0.84125 -0.940454,-1.54062 -0.01402,-1.33485 1.170666,-2.19354 2.445728,-1.77274 0.834361,0.27537 1.125689,0.73455 1.125689,1.77425 0,1.39026 -1.430916,2.22734 -2.630963,1.53911 z"
       id="path4981"
       inkscape:connector-curvature="0"
       inkscape:export-xdpi="300"
       inkscape:export-ydpi="300" />
    <path
       style="fill:#d50000;fill-opacity:1;stroke-width:0.191641"
       d="m 86.285228,134.59312 c 0,-0.845 -0.910287,-4.4143 -1.7217,-6.75089 -1.548421,-4.45894 -5.01288,-10.3311 -8.476187,-14.36689 -2.060394,-2.40098 -3.907288,-4.10354 -6.370196,-5.87238 -0.940209,-0.67525 -1.867447,-1.44043 -2.060524,-1.70039 -0.193078,-0.25998 -0.5421,-1.2916 -0.775601,-2.29249 -0.379293,-1.62582 -0.425331,-2.35072 -0.431888,-6.800328 -0.004,-2.739287 0.06397,-5.398773 0.151135,-5.909972 l 0.158475,-0.929462 0.896007,0.132356 c 1.160506,0.17142 5.55267,1.307728 7.025356,1.817549 0.629489,0.217924 2.116337,0.835085 3.304107,1.371483 l 2.159577,0.975256 1.267499,-0.506973 c 2.210198,-0.884042 3.435927,-1.091891 7.078762,-1.200356 4.00291,-0.11918 6.05789,0.147752 8.56036,1.111981 l 1.54018,0.593443 1.85179,-0.863122 c 1.01849,-0.47472 2.49887,-1.093402 3.28973,-1.374848 1.73216,-0.616432 7.11198,-2.017664 7.7465,-2.017664 0.62703,0 0.67814,0.330119 0.8156,5.267856 0.12522,4.498412 -0.008,6.191561 -0.72606,9.194811 l -0.41193,1.72403 -1.84275,1.24326 c -2.10501,1.42021 -5.93855,5.04641 -7.73125,7.31313 -4.28247,5.41479 -7.58471,12.26692 -8.80631,18.27304 l -0.43087,2.1184 -1.05345,-0.63382 c -1.5599,-0.9385 -3.3335,-0.79633 -4.57237,0.36652 l -0.433992,0.40737 z M 71.026419,98.656472 c 1.134957,-0.93752 2.80785,-2.097231 4.640293,-3.216804 0.329393,-0.20125 0.334627,-0.248413 0.05929,-0.53433 -0.581719,-0.604096 -4.887082,-1.830979 -6.425219,-1.830979 -0.458794,0 -0.462434,0.01551 -0.460998,1.963477 0.0013,1.801351 0.262535,4.201406 0.498828,4.583402 0.163515,0.264347 0.281445,0.196933 1.6878,-0.964766 z M 109.5339,99.09597 c 0.0918,-0.309209 0.21631,-1.745563 0.27677,-3.191911 0.10116,-2.420387 0.0822,-2.640329 -0.23766,-2.762984 -0.80814,-0.309848 -5.61957,0.948659 -6.48111,1.695237 -0.39906,0.34581 -0.40118,0.367521 -0.0579,0.591537 2.93963,1.918037 3.84617,2.554427 4.81418,3.379549 0.62941,0.536509 1.22864,0.947412 1.33161,0.913122 0.10298,-0.03426 0.2623,-0.315341 0.35406,-0.62455 z"
       id="path6152"
       inkscape:connector-curvature="0"
       inkscape:export-xdpi="300"
       inkscape:export-ydpi="300" />
    <path
       style="fill:#000000;fill-opacity:1;stroke-width:0.193422"
       d="m 86.220213,135.09439 c -0.06971,-0.87983 1.582987,-1.87123 2.996147,-1.87123 1.03316,0 2.27593,0.4322 2.8584,1.17268 0.7536,1.01436 0.71204,0.9902 -2.66173,1.02144 l -3.164912,0.0293 z"
       id="path4985"
       inkscape:connector-curvature="0"
       sodipodi:nodetypes="sscscs"
       inkscape:export-xdpi="300"
       inkscape:export-ydpi="300" />
    <path
       style="fill:#000000;fill-opacity:1;stroke-width:0.210477"
       d="m 100.22748,122.28317 c -0.64558,-0.37024 -0.93311,-0.84125 -0.94045,-1.54062 -0.014,-1.33485 1.17066,-2.19354 2.44572,-1.77274 0.83436,0.27537 1.12569,0.73455 1.12569,1.77425 0,1.39026 -1.43091,2.22734 -2.63096,1.53911 z"
       id="path4981-3"
       inkscape:connector-curvature="0"
       inkscape:export-xdpi="300"
       inkscape:export-ydpi="300" />
    <text
       xml:space="preserve"
       style="font-style:normal;font-variant:normal;font-weight:normal;font-stretch:normal;font-size:12.7px;font-family:Z003;-inkscape-font-specification:Z003;fill:#d50000;fill-opacity:1;stroke-width:0.264583"
       x="101.72024"
       y="175.1291"
       id="text8705"><tspan
         sodipodi:role="line"
         style="font-size:12.7px;text-align:center;text-anchor:middle;stroke-width:0.264583"
         x="101.72024"
         y="175.1291"
         id="tspan8757">PhysikerKevin</tspan><tspan
         sodipodi:role="line"
         style="font-size:12.7px;text-align:center;text-anchor:middle;stroke-width:0.264583"
         x="101.72024"
         y="191.0041"
         id="tspan8761">Photography</tspan></text>
  </g>
</svg>
